<svg width="84" height="60" viewBox="0 0 84 60" fill="none" xmlns="http://www.w3.org/2000/svg">
<g filter="url(#filter0_i_5_36)">
<path d="M20.0844 28H12.8844V-1.90735e-06H20.0844V11H23.6844L29.9244 -1.90735e-06H37.5244L29.6844 13.8L37.4844 28H29.8844L23.6844 16.6H20.0844V28Z" fill="#2349A2"/>
</g>
<g filter="url(#filter1_i_5_36)">
<path d="M42.29 25V10.83L39.3 11.87L38 8.88L42.81 6.8H46.97V25H42.29ZM64.132 12.52C64.132 13.9933 63.508 15.2673 62.26 16.342C61.8787 16.6713 61.4627 17.0007 61.012 17.33L55.422 21.36H64.132V25H50.092V20.06L59.452 13.3V12C59.452 10.96 58.932 10.44 57.892 10.44H50.612V6.8H58.932C60.752 6.8 62.0694 7.216 62.884 8.048C63.716 8.86267 64.132 10.18 64.132 12V12.52Z" fill="#D0A650"/>
</g>
<path d="M4.61049 39V37.475H2.80549V39H2.37549V35.56H2.80549V37.06H4.61049V35.56H5.03549V39H4.61049ZM5.9576 35.75V35.285H6.3876V35.75H5.9576ZM5.9726 39V36.45H6.3776V39H5.9726ZM9.28213 37.87H7.53713C7.53713 38.1133 7.5538 38.2867 7.58713 38.39C7.62046 38.4933 7.69213 38.5667 7.80213 38.61C7.91546 38.65 8.1038 38.67 8.36713 38.67C8.6238 38.67 8.89546 38.6517 9.18213 38.615V38.97C9.07546 38.99 8.93713 39.0067 8.76713 39.02C8.59713 39.0333 8.43546 39.04 8.28213 39.04C7.9388 39.04 7.68546 39 7.52213 38.92C7.36213 38.84 7.25713 38.7117 7.20713 38.535C7.15713 38.3583 7.13213 38.09 7.13213 37.73C7.13213 37.3767 7.1538 37.1117 7.19713 36.935C7.2438 36.7583 7.34546 36.6267 7.50213 36.54C7.66213 36.4533 7.9138 36.41 8.25713 36.41C8.57713 36.41 8.8088 36.4533 8.95213 36.54C9.09546 36.6233 9.18546 36.7517 9.22213 36.925C9.26213 37.095 9.28213 37.3617 9.28213 37.725V37.87ZM8.24713 36.78C8.03046 36.78 7.8738 36.8 7.77713 36.84C7.6838 36.8767 7.62046 36.9483 7.58713 37.055C7.55713 37.1583 7.54046 37.3267 7.53713 37.56H8.89213V37.52C8.89213 37.3 8.87213 37.1383 8.83213 37.035C8.79546 36.9317 8.7338 36.8633 8.64713 36.83C8.56046 36.7967 8.42713 36.78 8.24713 36.78ZM10.04 36.45H10.4L10.42 36.935H10.45C10.51 36.735 10.61 36.5983 10.75 36.525C10.89 36.4483 11.0733 36.41 11.3 36.41V36.845C11.07 36.845 10.8933 36.88 10.77 36.95C10.6466 37.02 10.5616 37.1283 10.515 37.275C10.4683 37.4183 10.445 37.6133 10.445 37.86V39H10.04V36.45ZM31.9266 38.64H31.8966C31.8399 38.77 31.7466 38.87 31.6166 38.94C31.4866 39.0067 31.2982 39.04 31.0516 39.04C30.8082 39.04 30.6232 39.005 30.4966 38.935C30.3732 38.865 30.2899 38.7617 30.2466 38.625C30.2032 38.485 30.1816 38.2917 30.1816 38.045V36.45H30.5866V37.885C30.5866 38.125 30.5999 38.295 30.6266 38.395C30.6566 38.495 30.7132 38.5617 30.7966 38.595C30.8799 38.6283 31.0199 38.645 31.2166 38.645C31.4266 38.645 31.5799 38.6117 31.6766 38.545C31.7766 38.4783 31.8399 38.3867 31.8666 38.27C31.8932 38.15 31.9066 37.9817 31.9066 37.765V36.45H32.3116V39H31.9466L31.9266 38.64ZM36.3147 37.565C36.3147 37.325 36.3014 37.155 36.2747 37.055C36.2514 36.955 36.2031 36.8883 36.1297 36.855C36.0564 36.8217 35.9331 36.805 35.7597 36.805C35.5731 36.805 35.4364 36.8367 35.3497 36.9C35.2631 36.9633 35.2081 37.0533 35.1847 37.17C35.1614 37.2867 35.1497 37.4583 35.1497 37.685V39H34.7447V37.565C34.7447 37.325 34.7314 37.155 34.7047 37.055C34.6814 36.955 34.6331 36.8883 34.5597 36.855C34.4864 36.8217 34.3631 36.805 34.1897 36.805C34.0031 36.805 33.8664 36.8383 33.7797 36.905C33.6931 36.9683 33.6381 37.06 33.6147 37.18C33.5914 37.2967 33.5797 37.465 33.5797 37.685V39H33.1747V36.45H33.5347L33.5547 36.81H33.5847C33.6347 36.68 33.7197 36.5817 33.8397 36.515C33.9631 36.445 34.1364 36.41 34.3597 36.41C34.5797 36.41 34.7464 36.4417 34.8597 36.505C34.9731 36.5683 35.0514 36.67 35.0947 36.81H35.1297C35.2364 36.5433 35.5014 36.41 35.9247 36.41C36.1481 36.41 36.3164 36.445 36.4297 36.515C36.5431 36.585 36.6197 36.69 36.6597 36.83C36.6997 36.9667 36.7197 37.1583 36.7197 37.405V39H36.3147V37.565ZM39.4456 39.04C39.1522 39.04 38.9389 38.9867 38.8056 38.88C38.6722 38.77 38.6056 38.5767 38.6056 38.3C38.6056 38.1033 38.6289 37.95 38.6756 37.84C38.7222 37.73 38.8006 37.65 38.9106 37.6C39.0239 37.55 39.1822 37.525 39.3856 37.525C39.4822 37.525 39.8006 37.5333 40.3406 37.55V37.4C40.3406 37.2 40.3206 37.0583 40.2806 36.975C40.2439 36.8917 40.1739 36.8383 40.0706 36.815C39.9706 36.7917 39.7989 36.78 39.5556 36.78C39.4489 36.78 39.3139 36.7867 39.1506 36.8C38.9906 36.81 38.8656 36.8217 38.7756 36.835V36.48C39.0389 36.4333 39.3472 36.41 39.7006 36.41C40.0006 36.41 40.2239 36.4417 40.3706 36.505C40.5206 36.565 40.6206 36.665 40.6706 36.805C40.7206 36.9417 40.7456 37.1417 40.7456 37.405V39H40.3806L40.3606 38.645H40.3306C40.2606 38.805 40.1472 38.9117 39.9906 38.965C39.8372 39.015 39.6556 39.04 39.4456 39.04ZM39.6006 38.675C39.7672 38.675 39.9022 38.66 40.0056 38.63C40.1122 38.6 40.1889 38.5417 40.2356 38.455C40.3056 38.335 40.3406 38.1683 40.3406 37.955V37.84H39.4906C39.3506 37.84 39.2472 37.85 39.1806 37.87C39.1172 37.89 39.0722 37.93 39.0456 37.99C39.0189 38.0467 39.0056 38.1367 39.0056 38.26C39.0056 38.38 39.0206 38.4683 39.0506 38.525C39.0806 38.5817 39.1356 38.6217 39.2156 38.645C39.2989 38.665 39.4272 38.675 39.6006 38.675ZM43.3621 38.64H43.3321C43.2755 38.77 43.1821 38.87 43.0521 38.94C42.9221 39.0067 42.7338 39.04 42.4871 39.04C42.2438 39.04 42.0588 39.005 41.9321 38.935C41.8088 38.865 41.7255 38.7617 41.6821 38.625C41.6388 38.485 41.6171 38.2917 41.6171 38.045V36.45H42.0221V37.885C42.0221 38.125 42.0355 38.295 42.0621 38.395C42.0921 38.495 42.1488 38.5617 42.2321 38.595C42.3155 38.6283 42.4555 38.645 42.6521 38.645C42.8621 38.645 43.0155 38.6117 43.1121 38.545C43.2121 38.4783 43.2755 38.3867 43.3021 38.27C43.3288 38.15 43.3421 37.9817 43.3421 37.765V36.45H43.7471V39H43.3821L43.3621 38.64ZM44.8253 36.82H44.3053V36.45H44.8253V36.07C44.8253 35.83 44.8586 35.655 44.9253 35.545C44.992 35.435 45.0953 35.365 45.2353 35.335C45.3753 35.305 45.5936 35.29 45.8903 35.29V35.625C45.697 35.625 45.5553 35.635 45.4653 35.655C45.3753 35.6717 45.3136 35.705 45.2803 35.755C45.247 35.805 45.2303 35.885 45.2303 35.995V36.45H45.8903V36.82H45.2303V39H44.8253V36.82ZM48.4824 39.04C48.2291 39.04 48.0357 39.0017 47.9024 38.925C47.7691 38.8483 47.6741 38.7183 47.6174 38.535C47.5641 38.3483 47.5374 38.08 47.5374 37.73C47.5374 37.3767 47.5641 37.1067 47.6174 36.92C47.6707 36.7333 47.7624 36.6017 47.8924 36.525C48.0257 36.4483 48.2174 36.41 48.4674 36.41C48.6874 36.41 48.8641 36.4367 48.9974 36.49C49.1341 36.5433 49.2341 36.6367 49.2974 36.77H49.3274V35.285H49.7324V39H49.3674L49.3524 38.645H49.3224C49.2524 38.7983 49.1457 38.9033 49.0024 38.96C48.8591 39.0133 48.6857 39.04 48.4824 39.04ZM48.6374 38.65C48.8107 38.65 48.9474 38.6283 49.0474 38.585C49.1474 38.5383 49.2157 38.4667 49.2524 38.37C49.2857 38.2933 49.3057 38.2067 49.3124 38.11C49.3224 38.01 49.3274 37.8733 49.3274 37.7C49.3274 37.5567 49.3224 37.4383 49.3124 37.345C49.3024 37.2517 49.2841 37.1717 49.2574 37.105C49.2174 37.0017 49.1457 36.9267 49.0424 36.88C48.9424 36.83 48.8041 36.805 48.6274 36.805C48.4174 36.805 48.2657 36.8267 48.1724 36.87C48.0824 36.91 48.0207 36.9917 47.9874 37.115C47.9574 37.2383 47.9424 37.4417 47.9424 37.725C47.9424 38.015 47.9574 38.2217 47.9874 38.345C48.0207 38.4683 48.0824 38.55 48.1724 38.59C48.2657 38.63 48.4207 38.65 48.6374 38.65ZM50.5865 35.75V35.285H51.0165V35.75H50.5865ZM50.6015 39V36.45H51.0065V39H50.6015ZM53.911 37.87H52.166C52.166 38.1133 52.1827 38.2867 52.216 38.39C52.2494 38.4933 52.321 38.5667 52.431 38.61C52.5444 38.65 52.7327 38.67 52.996 38.67C53.2527 38.67 53.5244 38.6517 53.811 38.615V38.97C53.7044 38.99 53.566 39.0067 53.396 39.02C53.226 39.0333 53.0644 39.04 52.911 39.04C52.5677 39.04 52.3144 39 52.151 38.92C51.991 38.84 51.886 38.7117 51.836 38.535C51.786 38.3583 51.761 38.09 51.761 37.73C51.761 37.3767 51.7827 37.1117 51.826 36.935C51.8727 36.7583 51.9744 36.6267 52.131 36.54C52.291 36.4533 52.5427 36.41 52.886 36.41C53.206 36.41 53.4377 36.4533 53.581 36.54C53.7244 36.6233 53.8144 36.7517 53.851 36.925C53.891 37.095 53.911 37.3617 53.911 37.725V37.87ZM52.876 36.78C52.6594 36.78 52.5027 36.8 52.406 36.84C52.3127 36.8767 52.2494 36.9483 52.216 37.055C52.186 37.1583 52.1694 37.3267 52.166 37.56H53.521V37.52C53.521 37.3 53.501 37.1383 53.461 37.035C53.4244 36.9317 53.3627 36.8633 53.276 36.83C53.1894 36.7967 53.056 36.78 52.876 36.78ZM25.1621 44.45H25.5221L25.5421 44.935H25.5721C25.6321 44.735 25.7321 44.5983 25.8721 44.525C26.0121 44.4483 26.1954 44.41 26.4221 44.41V44.845C26.1921 44.845 26.0154 44.88 25.8921 44.95C25.7687 45.02 25.6837 45.1283 25.6371 45.275C25.5904 45.4183 25.5671 45.6133 25.5671 45.86V47H25.1621V44.45ZM29.0136 45.87H27.2686C27.2686 46.1133 27.2852 46.2867 27.3186 46.39C27.3519 46.4933 27.4236 46.5667 27.5336 46.61C27.6469 46.65 27.8352 46.67 28.0986 46.67C28.3552 46.67 28.6269 46.6517 28.9136 46.615V46.97C28.8069 46.99 28.6686 47.0067 28.4986 47.02C28.3286 47.0333 28.1669 47.04 28.0136 47.04C27.6702 47.04 27.4169 47 27.2536 46.92C27.0936 46.84 26.9886 46.7117 26.9386 46.535C26.8886 46.3583 26.8636 46.09 26.8636 45.73C26.8636 45.3767 26.8852 45.1117 26.9286 44.935C26.9752 44.7583 27.0769 44.6267 27.2336 44.54C27.3936 44.4533 27.6452 44.41 27.9886 44.41C28.3086 44.41 28.5402 44.4533 28.6836 44.54C28.8269 44.6233 28.9169 44.7517 28.9536 44.925C28.9936 45.095 29.0136 45.3617 29.0136 45.725V45.87ZM27.9786 44.78C27.7619 44.78 27.6052 44.8 27.5086 44.84C27.4152 44.8767 27.3519 44.9483 27.3186 45.055C27.2886 45.1583 27.2719 45.3267 27.2686 45.56H28.6236V45.52C28.6236 45.3 28.6036 45.1383 28.5636 45.035C28.5269 44.9317 28.4652 44.8633 28.3786 44.83C28.2919 44.7967 28.1586 44.78 27.9786 44.78ZM29.7564 43.75V43.285H30.1864V43.75H29.7564ZM29.7714 47V44.45H30.1764V47H29.7714ZM32.766 45.565C32.766 45.3283 32.751 45.16 32.721 45.06C32.691 44.9567 32.6343 44.8883 32.551 44.855C32.4676 44.8217 32.3276 44.805 32.131 44.805C31.921 44.805 31.766 44.8383 31.666 44.905C31.5693 44.9717 31.5076 45.0633 31.481 45.18C31.4576 45.2967 31.446 45.465 31.446 45.685V47H31.041V44.45H31.401L31.421 44.81H31.451C31.5076 44.68 31.601 44.5817 31.731 44.515C31.861 44.445 32.0493 44.41 32.296 44.41C32.5426 44.41 32.7276 44.445 32.851 44.515C32.9776 44.585 33.0626 44.69 33.106 44.83C33.1493 44.9667 33.171 45.1583 33.171 45.405V47H32.766V45.565ZM33.8591 47V46.655L35.3441 44.82H33.9191V44.45H35.8691V44.795L34.3891 46.63H35.8791V47H33.8591ZM38.3182 46.64H38.2882C38.2315 46.77 38.1382 46.87 38.0082 46.94C37.8782 47.0067 37.6899 47.04 37.4432 47.04C37.1999 47.04 37.0149 47.005 36.8882 46.935C36.7649 46.865 36.6815 46.7617 36.6382 46.625C36.5949 46.485 36.5732 46.2917 36.5732 46.045V44.45H36.9782V45.885C36.9782 46.125 36.9915 46.295 37.0182 46.395C37.0482 46.495 37.1049 46.5617 37.1882 46.595C37.2715 46.6283 37.4115 46.645 37.6082 46.645C37.8182 46.645 37.9715 46.6117 38.0682 46.545C38.1682 46.4783 38.2315 46.3867 38.2582 46.27C38.2849 46.15 38.2982 45.9817 38.2982 45.765V44.45H38.7032V47H38.3382L38.3182 46.64ZM41.1913 47L40.2913 45.9H39.9713V47H39.5663V43.285H39.9713V45.525H40.2913L41.1963 44.45H41.6513L40.6163 45.685L41.6663 47H41.1913ZM43.2131 47.04C42.8564 47.04 42.6014 47.005 42.4481 46.935C42.2947 46.8617 42.1964 46.74 42.1531 46.57C42.1131 46.3967 42.0931 46.115 42.0931 45.725C42.0931 45.335 42.1131 45.055 42.1531 44.885C42.1964 44.7117 42.2947 44.59 42.4481 44.52C42.6014 44.4467 42.8564 44.41 43.2131 44.41C43.5664 44.41 43.8197 44.4467 43.9731 44.52C44.1264 44.59 44.2231 44.7117 44.2631 44.885C44.3064 45.055 44.3281 45.335 44.3281 45.725C44.3281 46.115 44.3064 46.3967 44.2631 46.57C44.2231 46.74 44.1264 46.8617 43.9731 46.935C43.8197 47.005 43.5664 47.04 43.2131 47.04ZM43.2131 46.67C43.4564 46.67 43.6247 46.6483 43.7181 46.605C43.8114 46.5617 43.8681 46.4833 43.8881 46.37C43.9114 46.2533 43.9231 46.0383 43.9231 45.725C43.9231 45.4117 43.9114 45.1983 43.8881 45.085C43.8681 44.9683 43.8114 44.8883 43.7181 44.845C43.6247 44.8017 43.4564 44.78 43.2131 44.78C42.9697 44.78 42.7997 44.8017 42.7031 44.845C42.6097 44.8883 42.5514 44.9683 42.5281 45.085C42.5081 45.1983 42.4981 45.4117 42.4981 45.725C42.4981 46.0383 42.5081 46.2533 42.5281 46.37C42.5514 46.4833 42.6097 46.5617 42.7031 46.605C42.7997 46.6483 42.9697 46.67 43.2131 46.67ZM48.2288 45.565C48.2288 45.325 48.2155 45.155 48.1888 45.055C48.1655 44.955 48.1171 44.8883 48.0438 44.855C47.9705 44.8217 47.8471 44.805 47.6738 44.805C47.4871 44.805 47.3505 44.8367 47.2638 44.9C47.1771 44.9633 47.1221 45.0533 47.0988 45.17C47.0755 45.2867 47.0638 45.4583 47.0638 45.685V47H46.6588V45.565C46.6588 45.325 46.6455 45.155 46.6188 45.055C46.5955 44.955 46.5471 44.8883 46.4738 44.855C46.4005 44.8217 46.2771 44.805 46.1038 44.805C45.9171 44.805 45.7805 44.8383 45.6938 44.905C45.6071 44.9683 45.5521 45.06 45.5288 45.18C45.5055 45.2967 45.4938 45.465 45.4938 45.685V47H45.0888V44.45H45.4488L45.4688 44.81H45.4988C45.5488 44.68 45.6338 44.5817 45.7538 44.515C45.8771 44.445 46.0505 44.41 46.2738 44.41C46.4938 44.41 46.6605 44.4417 46.7738 44.505C46.8871 44.5683 46.9655 44.67 47.0088 44.81H47.0438C47.1505 44.5433 47.4155 44.41 47.8388 44.41C48.0621 44.41 48.2305 44.445 48.3438 44.515C48.4571 44.585 48.5338 44.69 48.5738 44.83C48.6138 44.9667 48.6338 45.1583 48.6338 45.405V47H48.2288V45.565ZM52.6429 45.565C52.6429 45.325 52.6295 45.155 52.6029 45.055C52.5795 44.955 52.5312 44.8883 52.4579 44.855C52.3845 44.8217 52.2612 44.805 52.0879 44.805C51.9012 44.805 51.7645 44.8367 51.6779 44.9C51.5912 44.9633 51.5362 45.0533 51.5129 45.17C51.4895 45.2867 51.4779 45.4583 51.4779 45.685V47H51.0729V45.565C51.0729 45.325 51.0595 45.155 51.0329 45.055C51.0095 44.955 50.9612 44.8883 50.8879 44.855C50.8145 44.8217 50.6912 44.805 50.5179 44.805C50.3312 44.805 50.1945 44.8383 50.1079 44.905C50.0212 44.9683 49.9662 45.06 49.9429 45.18C49.9195 45.2967 49.9079 45.465 49.9079 45.685V47H49.5029V44.45H49.8629L49.8829 44.81H49.9129C49.9629 44.68 50.0479 44.5817 50.1679 44.515C50.2912 44.445 50.4645 44.41 50.6879 44.41C50.9079 44.41 51.0745 44.4417 51.1879 44.505C51.3012 44.5683 51.3795 44.67 51.4229 44.81H51.4579C51.5645 44.5433 51.8295 44.41 52.2529 44.41C52.4762 44.41 52.6445 44.445 52.7579 44.515C52.8712 44.585 52.9479 44.69 52.9879 44.83C53.0279 44.9667 53.0479 45.1583 53.0479 45.405V47H52.6429V45.565ZM55.9569 45.87H54.2119C54.2119 46.1133 54.2286 46.2867 54.2619 46.39C54.2953 46.4933 54.3669 46.5667 54.4769 46.61C54.5903 46.65 54.7786 46.67 55.0419 46.67C55.2986 46.67 55.5703 46.6517 55.8569 46.615V46.97C55.7503 46.99 55.6119 47.0067 55.4419 47.02C55.2719 47.0333 55.1103 47.04 54.9569 47.04C54.6136 47.04 54.3603 47 54.1969 46.92C54.0369 46.84 53.9319 46.7117 53.8819 46.535C53.8319 46.3583 53.8069 46.09 53.8069 45.73C53.8069 45.3767 53.8286 45.1117 53.8719 44.935C53.9186 44.7583 54.0203 44.6267 54.1769 44.54C54.3369 44.4533 54.5886 44.41 54.9319 44.41C55.2519 44.41 55.4836 44.4533 55.6269 44.54C55.7703 44.6233 55.8603 44.7517 55.8969 44.925C55.9369 45.095 55.9569 45.3617 55.9569 45.725V45.87ZM54.9219 44.78C54.7053 44.78 54.5486 44.8 54.4519 44.84C54.3586 44.8767 54.2953 44.9483 54.2619 45.055C54.2319 45.1583 54.2153 45.3267 54.2119 45.56H55.5669V45.52C55.5669 45.3 55.5469 45.1383 55.5069 45.035C55.4703 44.9317 55.4086 44.8633 55.3219 44.83C55.2353 44.7967 55.1019 44.78 54.9219 44.78ZM58.4398 45.565C58.4398 45.3283 58.4248 45.16 58.3948 45.06C58.3648 44.9567 58.3081 44.8883 58.2248 44.855C58.1415 44.8217 58.0015 44.805 57.8048 44.805C57.5948 44.805 57.4398 44.8383 57.3398 44.905C57.2431 44.9717 57.1815 45.0633 57.1548 45.18C57.1315 45.2967 57.1198 45.465 57.1198 45.685V47H56.7148V44.45H57.0748L57.0948 44.81H57.1248C57.1815 44.68 57.2748 44.5817 57.4048 44.515C57.5348 44.445 57.7231 44.41 57.9698 44.41C58.2165 44.41 58.4015 44.445 58.5248 44.515C58.6515 44.585 58.7365 44.69 58.7798 44.83C58.8231 44.9667 58.8448 45.1583 58.8448 45.405V47H58.4398V45.565Z" fill="#616161"/>
<path d="M14.6777 39L13.7777 37.9H13.4577V39H13.0527V35.285H13.4577V37.525H13.7777L14.6827 36.45H15.1377L14.1027 37.685L15.1527 39H14.6777ZM15.7382 39V35.285H16.1432V39H15.7382ZM16.9928 35.75V35.285H17.4228V35.75H16.9928ZM17.0078 39V36.45H17.4128V39H17.0078ZM19.8973 38.975C19.8073 38.9917 19.6973 39.0067 19.5673 39.02C19.4406 39.0333 19.319 39.04 19.2023 39.04C18.889 39.04 18.659 38.995 18.5123 38.905C18.3656 38.815 18.2706 38.6817 18.2273 38.505C18.1873 38.3283 18.1673 38.0683 18.1673 37.725C18.1673 37.3883 18.1923 37.1283 18.2423 36.945C18.2923 36.7617 18.3906 36.6267 18.5373 36.54C18.684 36.4533 18.9006 36.41 19.1873 36.41C19.3006 36.41 19.4206 36.4167 19.5473 36.43C19.6773 36.4433 19.7873 36.4583 19.8773 36.475V36.835C19.6773 36.7983 19.4806 36.78 19.2873 36.78C19.074 36.78 18.9173 36.805 18.8173 36.855C18.7206 36.905 18.6556 36.9933 18.6223 37.12C18.589 37.2467 18.5723 37.4483 18.5723 37.725C18.5723 38.005 18.589 38.21 18.6223 38.34C18.659 38.4667 18.7256 38.5533 18.8223 38.6C18.9223 38.6467 19.0823 38.67 19.3023 38.67C19.4656 38.67 19.664 38.6533 19.8973 38.62V38.975ZM22.2021 39L21.3021 37.9H20.9821V39H20.5771V35.285H20.9821V37.525H21.3021L22.2071 36.45H22.6621L21.6271 37.685L22.6771 39H22.2021ZM25.2538 37.87H23.5088C23.5088 38.1133 23.5255 38.2867 23.5588 38.39C23.5921 38.4933 23.6638 38.5667 23.7738 38.61C23.8871 38.65 24.0755 38.67 24.3388 38.67C24.5955 38.67 24.8671 38.6517 25.1538 38.615V38.97C25.0471 38.99 24.9088 39.0067 24.7388 39.02C24.5688 39.0333 24.4071 39.04 24.2538 39.04C23.9105 39.04 23.6571 39 23.4938 38.92C23.3338 38.84 23.2288 38.7117 23.1788 38.535C23.1288 38.3583 23.1038 38.09 23.1038 37.73C23.1038 37.3767 23.1255 37.1117 23.1688 36.935C23.2155 36.7583 23.3171 36.6267 23.4738 36.54C23.6338 36.4533 23.8855 36.41 24.2288 36.41C24.5488 36.41 24.7805 36.4533 24.9238 36.54C25.0671 36.6233 25.1571 36.7517 25.1938 36.925C25.2338 37.095 25.2538 37.3617 25.2538 37.725V37.87ZM24.2188 36.78C24.0021 36.78 23.8455 36.8 23.7488 36.84C23.6555 36.8767 23.5921 36.9483 23.5588 37.055C23.5288 37.1583 23.5121 37.3267 23.5088 37.56H24.8638V37.52C24.8638 37.3 24.8438 37.1383 24.8038 37.035C24.7671 36.9317 24.7055 36.8633 24.6188 36.83C24.5321 36.7967 24.3988 36.78 24.2188 36.78ZM27.7367 37.565C27.7367 37.3283 27.7217 37.16 27.6917 37.06C27.6617 36.9567 27.605 36.8883 27.5217 36.855C27.4383 36.8217 27.2983 36.805 27.1017 36.805C26.8917 36.805 26.7367 36.8383 26.6367 36.905C26.54 36.9717 26.4783 37.0633 26.4517 37.18C26.4283 37.2967 26.4167 37.465 26.4167 37.685V39H26.0117V36.45H26.3717L26.3917 36.81H26.4217C26.4783 36.68 26.5717 36.5817 26.7017 36.515C26.8317 36.445 27.02 36.41 27.2667 36.41C27.5133 36.41 27.6983 36.445 27.8217 36.515C27.9483 36.585 28.0333 36.69 28.0767 36.83C28.12 36.9667 28.1417 37.1583 28.1417 37.405V39H27.7367V37.565ZM56.8556 39.04C56.499 39.04 56.244 39.005 56.0906 38.935C55.9373 38.8617 55.839 38.74 55.7956 38.57C55.7556 38.3967 55.7356 38.115 55.7356 37.725C55.7356 37.335 55.7556 37.055 55.7956 36.885C55.839 36.7117 55.9373 36.59 56.0906 36.52C56.244 36.4467 56.499 36.41 56.8556 36.41C57.209 36.41 57.4623 36.4467 57.6156 36.52C57.769 36.59 57.8656 36.7117 57.9056 36.885C57.949 37.055 57.9706 37.335 57.9706 37.725C57.9706 38.115 57.949 38.3967 57.9056 38.57C57.8656 38.74 57.769 38.8617 57.6156 38.935C57.4623 39.005 57.209 39.04 56.8556 39.04ZM56.8556 38.67C57.099 38.67 57.2673 38.6483 57.3606 38.605C57.454 38.5617 57.5106 38.4833 57.5306 38.37C57.554 38.2533 57.5656 38.0383 57.5656 37.725C57.5656 37.4117 57.554 37.1983 57.5306 37.085C57.5106 36.9683 57.454 36.8883 57.3606 36.845C57.2673 36.8017 57.099 36.78 56.8556 36.78C56.6123 36.78 56.4423 36.8017 56.3456 36.845C56.2523 36.8883 56.194 36.9683 56.1706 37.085C56.1506 37.1983 56.1406 37.4117 56.1406 37.725C56.1406 38.0383 56.1506 38.2533 56.1706 38.37C56.194 38.4833 56.2523 38.5617 56.3456 38.605C56.4423 38.6483 56.6123 38.67 56.8556 38.67ZM60.4564 37.565C60.4564 37.3283 60.4414 37.16 60.4114 37.06C60.3814 36.9567 60.3247 36.8883 60.2414 36.855C60.1581 36.8217 60.0181 36.805 59.8214 36.805C59.6114 36.805 59.4564 36.8383 59.3564 36.905C59.2597 36.9717 59.1981 37.0633 59.1714 37.18C59.1481 37.2967 59.1364 37.465 59.1364 37.685V39H58.7314V36.45H59.0914L59.1114 36.81H59.1414C59.1981 36.68 59.2914 36.5817 59.4214 36.515C59.5514 36.445 59.7397 36.41 59.9864 36.41C60.2331 36.41 60.4181 36.445 60.5414 36.515C60.6681 36.585 60.7531 36.69 60.7964 36.83C60.8397 36.9667 60.8614 37.1583 60.8614 37.405V39H60.4564V37.565ZM61.7246 39V35.285H62.1296V39H61.7246ZM62.9791 35.75V35.285H63.4091V35.75H62.9791ZM62.9941 39V36.45H63.3991V39H62.9941ZM65.9886 37.565C65.9886 37.3283 65.9736 37.16 65.9436 37.06C65.9136 36.9567 65.8569 36.8883 65.7736 36.855C65.6903 36.8217 65.5503 36.805 65.3536 36.805C65.1436 36.805 64.9886 36.8383 64.8886 36.905C64.7919 36.9717 64.7303 37.0633 64.7036 37.18C64.6803 37.2967 64.6686 37.465 64.6686 37.685V39H64.2636V36.45H64.6236L64.6436 36.81H64.6736C64.7303 36.68 64.8236 36.5817 64.9536 36.515C65.0836 36.445 65.2719 36.41 65.5186 36.41C65.7653 36.41 65.9503 36.445 66.0736 36.515C66.2003 36.585 66.2853 36.69 66.3286 36.83C66.3719 36.9667 66.3936 37.1583 66.3936 37.405V39H65.9886V37.565ZM69.2968 37.87H67.5518C67.5518 38.1133 67.5684 38.2867 67.6018 38.39C67.6351 38.4933 67.7068 38.5667 67.8168 38.61C67.9301 38.65 68.1184 38.67 68.3818 38.67C68.6384 38.67 68.9101 38.6517 69.1968 38.615V38.97C69.0901 38.99 68.9518 39.0067 68.7818 39.02C68.6118 39.0333 68.4501 39.04 68.2968 39.04C67.9534 39.04 67.7001 39 67.5368 38.92C67.3768 38.84 67.2718 38.7117 67.2218 38.535C67.1718 38.3583 67.1468 38.09 67.1468 37.73C67.1468 37.3767 67.1684 37.1117 67.2118 36.935C67.2584 36.7583 67.3601 36.6267 67.5168 36.54C67.6768 36.4533 67.9284 36.41 68.2718 36.41C68.5918 36.41 68.8234 36.4533 68.9668 36.54C69.1101 36.6233 69.2001 36.7517 69.2368 36.925C69.2768 37.095 69.2968 37.3617 69.2968 37.725V37.87ZM68.2618 36.78C68.0451 36.78 67.8884 36.8 67.7918 36.84C67.6984 36.8767 67.6351 36.9483 67.6018 37.055C67.5718 37.1583 67.5551 37.3267 67.5518 37.56H68.9068V37.52C68.9068 37.3 68.8868 37.1383 68.8468 37.035C68.8101 36.9317 68.7484 36.8633 68.6618 36.83C68.5751 36.7967 68.4418 36.78 68.2618 36.78ZM72.0764 39.04C71.9397 39.04 71.7847 39.0333 71.6114 39.02C71.4381 39.0067 71.2847 38.9917 71.1514 38.975V38.615C71.4814 38.6517 71.7831 38.67 72.0564 38.67C72.2264 38.67 72.3514 38.6583 72.4314 38.635C72.5114 38.6117 72.5631 38.575 72.5864 38.525C72.6131 38.4717 72.6264 38.3933 72.6264 38.29C72.6264 38.1867 72.6164 38.1133 72.5964 38.07C72.5797 38.0233 72.5514 37.9917 72.5114 37.975C72.4714 37.9583 72.4014 37.945 72.3014 37.935L71.6364 37.86C71.4831 37.8433 71.3647 37.8083 71.2814 37.755C71.2014 37.7017 71.1464 37.6283 71.1164 37.535C71.0864 37.4417 71.0714 37.3167 71.0714 37.16C71.0714 36.9433 71.1097 36.7817 71.1864 36.675C71.2664 36.565 71.3747 36.4933 71.5114 36.46C71.6514 36.4267 71.8381 36.41 72.0714 36.41C72.2014 36.41 72.3414 36.4167 72.4914 36.43C72.6414 36.4433 72.7681 36.46 72.8714 36.48V36.84C72.6114 36.8 72.3431 36.78 72.0664 36.78C71.9131 36.78 71.7964 36.7883 71.7164 36.805C71.6364 36.8183 71.5747 36.8517 71.5314 36.905C71.4881 36.955 71.4664 37.035 71.4664 37.145C71.4664 37.2417 71.4747 37.3117 71.4914 37.355C71.5081 37.3983 71.5364 37.4283 71.5764 37.445C71.6164 37.4617 71.6831 37.475 71.7764 37.485L72.4664 37.565C72.6131 37.5817 72.7231 37.61 72.7964 37.65C72.8731 37.6867 72.9281 37.7533 72.9614 37.85C72.9981 37.9467 73.0164 38.09 73.0164 38.28C73.0164 38.49 72.9814 38.65 72.9114 38.76C72.8447 38.87 72.7447 38.945 72.6114 38.985C72.4814 39.0217 72.3031 39.04 72.0764 39.04ZM75.4515 37.565C75.4515 37.3283 75.4365 37.16 75.4065 37.06C75.3765 36.9567 75.3198 36.8883 75.2365 36.855C75.1532 36.8217 75.0132 36.805 74.8165 36.805C74.6065 36.805 74.4515 36.8383 74.3515 36.905C74.2548 36.9717 74.1932 37.0633 74.1665 37.18C74.1432 37.2967 74.1315 37.465 74.1315 37.685V39H73.7265V35.285H74.1315V36.785H74.1565C74.2098 36.665 74.2998 36.5733 74.4265 36.51C74.5565 36.4467 74.7415 36.415 74.9815 36.415C75.2282 36.415 75.4132 36.45 75.5365 36.52C75.6632 36.5867 75.7482 36.69 75.7915 36.83C75.8348 36.9667 75.8565 37.1583 75.8565 37.405V39H75.4515V37.565ZM77.7297 39.04C77.373 39.04 77.118 39.005 76.9647 38.935C76.8113 38.8617 76.713 38.74 76.6697 38.57C76.6297 38.3967 76.6097 38.115 76.6097 37.725C76.6097 37.335 76.6297 37.055 76.6697 36.885C76.713 36.7117 76.8113 36.59 76.9647 36.52C77.118 36.4467 77.373 36.41 77.7297 36.41C78.083 36.41 78.3363 36.4467 78.4897 36.52C78.643 36.59 78.7397 36.7117 78.7797 36.885C78.823 37.055 78.8447 37.335 78.8447 37.725C78.8447 38.115 78.823 38.3967 78.7797 38.57C78.7397 38.74 78.643 38.8617 78.4897 38.935C78.3363 39.005 78.083 39.04 77.7297 39.04ZM77.7297 38.67C77.973 38.67 78.1413 38.6483 78.2347 38.605C78.328 38.5617 78.3847 38.4833 78.4047 38.37C78.428 38.2533 78.4397 38.0383 78.4397 37.725C78.4397 37.4117 78.428 37.1983 78.4047 37.085C78.3847 36.9683 78.328 36.8883 78.2347 36.845C78.1413 36.8017 77.973 36.78 77.7297 36.78C77.4863 36.78 77.3163 36.8017 77.2197 36.845C77.1263 36.8883 77.068 36.9683 77.0447 37.085C77.0247 37.1983 77.0147 37.4117 77.0147 37.725C77.0147 38.0383 77.0247 38.2533 77.0447 38.37C77.068 38.4833 77.1263 38.5617 77.2197 38.605C77.3163 38.6483 77.4863 38.67 77.7297 38.67ZM79.6054 36.45H79.9654L79.9854 36.81H80.0154C80.0821 36.6567 80.1871 36.5517 80.3304 36.495C80.4771 36.4383 80.6521 36.41 80.8554 36.41C81.1087 36.41 81.3021 36.4483 81.4354 36.525C81.5687 36.6017 81.6621 36.7333 81.7154 36.92C81.7721 37.1033 81.8004 37.37 81.8004 37.72C81.8004 38.0733 81.7721 38.3433 81.7154 38.53C81.6621 38.7167 81.5687 38.8483 81.4354 38.925C81.3054 39.0017 81.1154 39.04 80.8654 39.04C80.6487 39.04 80.4721 39.0133 80.3354 38.96C80.2021 38.9067 80.1021 38.8133 80.0354 38.68H80.0104V40H79.6054V36.45ZM80.6954 38.645C80.9121 38.645 81.0654 38.625 81.1554 38.585C81.2487 38.545 81.3104 38.4633 81.3404 38.34C81.3737 38.2167 81.3904 38.0117 81.3904 37.725C81.3904 37.4383 81.3737 37.2333 81.3404 37.11C81.3104 36.9867 81.2487 36.905 81.1554 36.865C81.0654 36.8217 80.9121 36.8 80.6954 36.8C80.5254 36.8 80.3904 36.8233 80.2904 36.87C80.1904 36.9167 80.1204 36.9883 80.0804 37.085C80.0504 37.1583 80.0304 37.2433 80.0204 37.34C80.0137 37.4367 80.0104 37.565 80.0104 37.725C80.0104 37.8883 80.0137 38.0167 80.0204 38.11C80.0271 38.2033 80.0437 38.2817 80.0704 38.345C80.1137 38.4517 80.1854 38.5283 80.2854 38.575C80.3854 38.6217 80.5221 38.645 80.6954 38.645Z" fill="#FF0000"/>
<path d="M19.8521 56L19.4971 55.085H17.9471L17.5921 56H17.1571L18.4571 52.56H18.9971L20.2971 56H19.8521ZM18.7321 53.025H18.7071L18.0771 54.68H19.3621L18.7321 53.025ZM22.6151 55.64H22.5851C22.5284 55.77 22.4351 55.87 22.3051 55.94C22.1751 56.0067 21.9867 56.04 21.7401 56.04C21.4967 56.04 21.3117 56.005 21.1851 55.935C21.0617 55.865 20.9784 55.7617 20.9351 55.625C20.8917 55.485 20.8701 55.2917 20.8701 55.045V53.45H21.2751V54.885C21.2751 55.125 21.2884 55.295 21.3151 55.395C21.3451 55.495 21.4017 55.5617 21.4851 55.595C21.5684 55.6283 21.7084 55.645 21.9051 55.645C22.1151 55.645 22.2684 55.6117 22.3651 55.545C22.4651 55.4783 22.5284 55.3867 22.5551 55.27C22.5817 55.15 22.5951 54.9817 22.5951 54.765V53.45H23.0001V56H22.6351L22.6151 55.64ZM25.4832 55.975C25.3932 55.9917 25.2832 56.0067 25.1532 56.02C25.0266 56.0333 24.9049 56.04 24.7882 56.04C24.4749 56.04 24.2449 55.995 24.0982 55.905C23.9516 55.815 23.8566 55.6817 23.8132 55.505C23.7732 55.3283 23.7532 55.0683 23.7532 54.725C23.7532 54.3883 23.7782 54.1283 23.8282 53.945C23.8782 53.7617 23.9766 53.6267 24.1232 53.54C24.2699 53.4533 24.4866 53.41 24.7732 53.41C24.8866 53.41 25.0066 53.4167 25.1332 53.43C25.2632 53.4433 25.3732 53.4583 25.4632 53.475V53.835C25.2632 53.7983 25.0666 53.78 24.8732 53.78C24.6599 53.78 24.5032 53.805 24.4032 53.855C24.3066 53.905 24.2416 53.9933 24.2082 54.12C24.1749 54.2467 24.1582 54.4483 24.1582 54.725C24.1582 55.005 24.1749 55.21 24.2082 55.34C24.2449 55.4667 24.3116 55.5533 24.4082 55.6C24.5082 55.6467 24.6682 55.67 24.8882 55.67C25.0516 55.67 25.2499 55.6533 25.4832 55.62V55.975ZM27.888 54.565C27.888 54.3283 27.873 54.16 27.843 54.06C27.813 53.9567 27.7564 53.8883 27.673 53.855C27.5897 53.8217 27.4497 53.805 27.253 53.805C27.043 53.805 26.888 53.8383 26.788 53.905C26.6914 53.9717 26.6297 54.0633 26.603 54.18C26.5797 54.2967 26.568 54.465 26.568 54.685V56H26.163V52.285H26.568V53.785H26.593C26.6464 53.665 26.7364 53.5733 26.863 53.51C26.993 53.4467 27.178 53.415 27.418 53.415C27.6647 53.415 27.8497 53.45 27.973 53.52C28.0997 53.5867 28.1847 53.69 28.228 53.83C28.2714 53.9667 28.293 54.1583 28.293 54.405V56H27.888V54.565ZM32.0579 54.565C32.0579 54.3283 32.0429 54.16 32.0129 54.06C31.9829 53.9567 31.9263 53.8883 31.8429 53.855C31.7596 53.8217 31.6196 53.805 31.4229 53.805C31.2129 53.805 31.0579 53.8383 30.9579 53.905C30.8613 53.9717 30.7996 54.0633 30.7729 54.18C30.7496 54.2967 30.7379 54.465 30.7379 54.685V56H30.3329V53.45H30.6929L30.7129 53.81H30.7429C30.7996 53.68 30.8929 53.5817 31.0229 53.515C31.1529 53.445 31.3413 53.41 31.5879 53.41C31.8346 53.41 32.0196 53.445 32.1429 53.515C32.2696 53.585 32.3546 53.69 32.3979 53.83C32.4413 53.9667 32.4629 54.1583 32.4629 54.405V56H32.0579V54.565ZM34.0061 56.04C33.7128 56.04 33.4994 55.9867 33.3661 55.88C33.2328 55.77 33.1661 55.5767 33.1661 55.3C33.1661 55.1033 33.1894 54.95 33.2361 54.84C33.2828 54.73 33.3611 54.65 33.4711 54.6C33.5844 54.55 33.7428 54.525 33.9461 54.525C34.0428 54.525 34.3611 54.5333 34.9011 54.55V54.4C34.9011 54.2 34.8811 54.0583 34.8411 53.975C34.8044 53.8917 34.7344 53.8383 34.6311 53.815C34.5311 53.7917 34.3594 53.78 34.1161 53.78C34.0094 53.78 33.8744 53.7867 33.7111 53.8C33.5511 53.81 33.4261 53.8217 33.3361 53.835V53.48C33.5994 53.4333 33.9078 53.41 34.2611 53.41C34.5611 53.41 34.7844 53.4417 34.9311 53.505C35.0811 53.565 35.1811 53.665 35.2311 53.805C35.2811 53.9417 35.3061 54.1417 35.3061 54.405V56H34.9411L34.9211 55.645H34.8911C34.8211 55.805 34.7078 55.9117 34.5511 55.965C34.3978 56.015 34.2161 56.04 34.0061 56.04ZM34.1611 55.675C34.3278 55.675 34.4628 55.66 34.5661 55.63C34.6728 55.6 34.7494 55.5417 34.7961 55.455C34.8661 55.335 34.9011 55.1683 34.9011 54.955V54.84H34.0511C33.9111 54.84 33.8078 54.85 33.7411 54.87C33.6778 54.89 33.6328 54.93 33.6061 54.99C33.5794 55.0467 33.5661 55.1367 33.5661 55.26C33.5661 55.38 33.5811 55.4683 33.6111 55.525C33.6411 55.5817 33.6961 55.6217 33.7761 55.645C33.8594 55.665 33.9878 55.675 34.1611 55.675ZM37.7977 55.975C37.7077 55.9917 37.5977 56.0067 37.4677 56.02C37.341 56.0333 37.2193 56.04 37.1027 56.04C36.7893 56.04 36.5593 55.995 36.4127 55.905C36.266 55.815 36.171 55.6817 36.1277 55.505C36.0877 55.3283 36.0677 55.0683 36.0677 54.725C36.0677 54.3883 36.0927 54.1283 36.1427 53.945C36.1927 53.7617 36.291 53.6267 36.4377 53.54C36.5843 53.4533 36.801 53.41 37.0877 53.41C37.201 53.41 37.321 53.4167 37.4477 53.43C37.5777 53.4433 37.6877 53.4583 37.7777 53.475V53.835C37.5777 53.7983 37.381 53.78 37.1877 53.78C36.9743 53.78 36.8177 53.805 36.7177 53.855C36.621 53.905 36.556 53.9933 36.5227 54.12C36.4893 54.2467 36.4727 54.4483 36.4727 54.725C36.4727 55.005 36.4893 55.21 36.5227 55.34C36.5593 55.4667 36.626 55.5533 36.7227 55.6C36.8227 55.6467 36.9827 55.67 37.2027 55.67C37.366 55.67 37.5643 55.6533 37.7977 55.62V55.975ZM40.2025 54.565C40.2025 54.3283 40.1875 54.16 40.1575 54.06C40.1275 53.9567 40.0708 53.8883 39.9875 53.855C39.9041 53.8217 39.7641 53.805 39.5675 53.805C39.3575 53.805 39.2025 53.8383 39.1025 53.905C39.0058 53.9717 38.9441 54.0633 38.9175 54.18C38.8941 54.2967 38.8825 54.465 38.8825 54.685V56H38.4775V52.285H38.8825V53.785H38.9075C38.9608 53.665 39.0508 53.5733 39.1775 53.51C39.3075 53.4467 39.4925 53.415 39.7325 53.415C39.9791 53.415 40.1641 53.45 40.2875 53.52C40.4141 53.5867 40.4991 53.69 40.5425 53.83C40.5858 53.9667 40.6075 54.1583 40.6075 54.405V56H40.2025V54.565ZM41.6806 56V53.82H41.1656V53.45H41.6806V52.71H42.0856V53.45H42.6956V53.82H42.0856V56H41.6806Z" fill="#616161"/>
<path d="M45.6943 56.04C45.4876 56.04 45.3126 56.0133 45.1693 55.96C45.0259 55.9033 44.9209 55.7983 44.8543 55.645H44.8243L44.8043 56H44.4443V52.285H44.8493V53.77H44.8743C44.9409 53.6367 45.0409 53.5433 45.1743 53.49C45.3109 53.4367 45.4876 53.41 45.7043 53.41C45.9543 53.41 46.1443 53.4483 46.2743 53.525C46.4076 53.6017 46.5009 53.7333 46.5543 53.92C46.6109 54.1033 46.6393 54.3717 46.6393 54.725C46.6393 55.0783 46.6109 55.3483 46.5543 55.535C46.5009 55.7183 46.4076 55.8483 46.2743 55.925C46.1409 56.0017 45.9476 56.04 45.6943 56.04ZM45.5343 55.65C45.7509 55.65 45.9043 55.63 45.9943 55.59C46.0876 55.55 46.1493 55.4683 46.1793 55.345C46.2126 55.2217 46.2293 55.015 46.2293 54.725C46.2293 54.4383 46.2126 54.235 46.1793 54.115C46.1493 53.9917 46.0876 53.91 45.9943 53.87C45.9043 53.8267 45.7509 53.805 45.5343 53.805C45.3709 53.805 45.2409 53.825 45.1443 53.865C45.0476 53.905 44.9793 53.9667 44.9393 54.05C44.9026 54.1233 44.8776 54.2117 44.8643 54.315C44.8543 54.4183 44.8493 54.555 44.8493 54.725C44.8493 54.9017 44.8543 55.04 44.8643 55.14C44.8743 55.24 44.8976 55.3267 44.9343 55.4C44.9776 55.4867 45.0476 55.55 45.1443 55.59C45.2409 55.63 45.3709 55.65 45.5343 55.65ZM49.4384 54.87H47.6934C47.6934 55.1133 47.71 55.2867 47.7434 55.39C47.7767 55.4933 47.8484 55.5667 47.9584 55.61C48.0717 55.65 48.26 55.67 48.5234 55.67C48.78 55.67 49.0517 55.6517 49.3384 55.615V55.97C49.2317 55.99 49.0934 56.0067 48.9234 56.02C48.7534 56.0333 48.5917 56.04 48.4384 56.04C48.095 56.04 47.8417 56 47.6784 55.92C47.5184 55.84 47.4134 55.7117 47.3634 55.535C47.3134 55.3583 47.2884 55.09 47.2884 54.73C47.2884 54.3767 47.31 54.1117 47.3534 53.935C47.4 53.7583 47.5017 53.6267 47.6584 53.54C47.8184 53.4533 48.07 53.41 48.4134 53.41C48.7334 53.41 48.965 53.4533 49.1084 53.54C49.2517 53.6233 49.3417 53.7517 49.3784 53.925C49.4184 54.095 49.4384 54.3617 49.4384 54.725V54.87ZM48.4034 53.78C48.1867 53.78 48.03 53.8 47.9334 53.84C47.84 53.8767 47.7767 53.9483 47.7434 54.055C47.7134 54.1583 47.6967 54.3267 47.6934 54.56H49.0484V54.52C49.0484 54.3 49.0284 54.1383 48.9884 54.035C48.9517 53.9317 48.89 53.8633 48.8034 53.83C48.7167 53.7967 48.5834 53.78 48.4034 53.78ZM51.0412 56.04C50.9046 56.04 50.7496 56.0333 50.5762 56.02C50.4029 56.0067 50.2496 55.9917 50.1162 55.975V55.615C50.4462 55.6517 50.7479 55.67 51.0212 55.67C51.1912 55.67 51.3162 55.6583 51.3962 55.635C51.4762 55.6117 51.5279 55.575 51.5512 55.525C51.5779 55.4717 51.5912 55.3933 51.5912 55.29C51.5912 55.1867 51.5812 55.1133 51.5612 55.07C51.5446 55.0233 51.5162 54.9917 51.4762 54.975C51.4362 54.9583 51.3662 54.945 51.2662 54.935L50.6012 54.86C50.4479 54.8433 50.3296 54.8083 50.2462 54.755C50.1662 54.7017 50.1112 54.6283 50.0812 54.535C50.0512 54.4417 50.0362 54.3167 50.0362 54.16C50.0362 53.9433 50.0746 53.7817 50.1512 53.675C50.2312 53.565 50.3396 53.4933 50.4762 53.46C50.6162 53.4267 50.8029 53.41 51.0362 53.41C51.1662 53.41 51.3062 53.4167 51.4562 53.43C51.6062 53.4433 51.7329 53.46 51.8362 53.48V53.84C51.5762 53.8 51.3079 53.78 51.0312 53.78C50.8779 53.78 50.7612 53.7883 50.6812 53.805C50.6012 53.8183 50.5396 53.8517 50.4962 53.905C50.4529 53.955 50.4312 54.035 50.4312 54.145C50.4312 54.2417 50.4396 54.3117 50.4562 54.355C50.4729 54.3983 50.5012 54.4283 50.5412 54.445C50.5812 54.4617 50.6479 54.475 50.7412 54.485L51.4312 54.565C51.5779 54.5817 51.6879 54.61 51.7612 54.65C51.8379 54.6867 51.8929 54.7533 51.9262 54.85C51.9629 54.9467 51.9812 55.09 51.9812 55.28C51.9812 55.49 51.9462 55.65 51.8762 55.76C51.8096 55.87 51.7096 55.945 51.5762 55.985C51.4462 56.0217 51.2679 56.04 51.0412 56.04ZM52.8769 56V53.82H52.3619V53.45H52.8769V52.71H53.2819V53.45H53.8919V53.82H53.2819V56H52.8769ZM56.4794 54.87H54.7344C54.7344 55.1133 54.7511 55.2867 54.7844 55.39C54.8177 55.4933 54.8894 55.5667 54.9994 55.61C55.1127 55.65 55.3011 55.67 55.5644 55.67C55.8211 55.67 56.0927 55.6517 56.3794 55.615V55.97C56.2727 55.99 56.1344 56.0067 55.9644 56.02C55.7944 56.0333 55.6327 56.04 55.4794 56.04C55.1361 56.04 54.8827 56 54.7194 55.92C54.5594 55.84 54.4544 55.7117 54.4044 55.535C54.3544 55.3583 54.3294 55.09 54.3294 54.73C54.3294 54.3767 54.3511 54.1117 54.3944 53.935C54.4411 53.7583 54.5427 53.6267 54.6994 53.54C54.8594 53.4533 55.1111 53.41 55.4544 53.41C55.7744 53.41 56.0061 53.4533 56.1494 53.54C56.2927 53.6233 56.3827 53.7517 56.4194 53.925C56.4594 54.095 56.4794 54.3617 56.4794 54.725V54.87ZM55.4444 53.78C55.2277 53.78 55.0711 53.8 54.9744 53.84C54.8811 53.8767 54.8177 53.9483 54.7844 54.055C54.7544 54.1583 54.7377 54.3267 54.7344 54.56H56.0894V54.52C56.0894 54.3 56.0694 54.1383 56.0294 54.035C55.9927 53.9317 55.9311 53.8633 55.8444 53.83C55.7577 53.7967 55.6244 53.78 55.4444 53.78ZM57.2372 56V52.285H57.6422V56H57.2372ZM58.5068 56V52.285H58.9118V56H58.5068ZM61.0263 56.04C60.8196 56.04 60.6446 56.0133 60.5013 55.96C60.358 55.9033 60.253 55.7983 60.1863 55.645H60.1563L60.1363 56H59.7763V52.285H60.1813V53.77H60.2063C60.273 53.6367 60.373 53.5433 60.5063 53.49C60.643 53.4367 60.8196 53.41 61.0363 53.41C61.2863 53.41 61.4763 53.4483 61.6063 53.525C61.7396 53.6017 61.833 53.7333 61.8863 53.92C61.943 54.1033 61.9713 54.3717 61.9713 54.725C61.9713 55.0783 61.943 55.3483 61.8863 55.535C61.833 55.7183 61.7396 55.8483 61.6063 55.925C61.473 56.0017 61.2796 56.04 61.0263 56.04ZM60.8663 55.65C61.083 55.65 61.2363 55.63 61.3263 55.59C61.4196 55.55 61.4813 55.4683 61.5113 55.345C61.5446 55.2217 61.5613 55.015 61.5613 54.725C61.5613 54.4383 61.5446 54.235 61.5113 54.115C61.4813 53.9917 61.4196 53.91 61.3263 53.87C61.2363 53.8267 61.083 53.805 60.8663 53.805C60.703 53.805 60.573 53.825 60.4763 53.865C60.3796 53.905 60.3113 53.9667 60.2713 54.05C60.2346 54.1233 60.2096 54.2117 60.1963 54.315C60.1863 54.4183 60.1813 54.555 60.1813 54.725C60.1813 54.9017 60.1863 55.04 60.1963 55.14C60.2063 55.24 60.2296 55.3267 60.2663 55.4C60.3096 55.4867 60.3796 55.55 60.4763 55.59C60.573 55.63 60.703 55.65 60.8663 55.65ZM63.4104 56.04C63.1171 56.04 62.9037 55.9867 62.7704 55.88C62.6371 55.77 62.5704 55.5767 62.5704 55.3C62.5704 55.1033 62.5937 54.95 62.6404 54.84C62.6871 54.73 62.7654 54.65 62.8754 54.6C62.9887 54.55 63.1471 54.525 63.3504 54.525C63.4471 54.525 63.7654 54.5333 64.3054 54.55V54.4C64.3054 54.2 64.2854 54.0583 64.2454 53.975C64.2087 53.8917 64.1387 53.8383 64.0354 53.815C63.9354 53.7917 63.7637 53.78 63.5204 53.78C63.4137 53.78 63.2787 53.7867 63.1154 53.8C62.9554 53.81 62.8304 53.8217 62.7404 53.835V53.48C63.0037 53.4333 63.3121 53.41 63.6654 53.41C63.9654 53.41 64.1887 53.4417 64.3354 53.505C64.4854 53.565 64.5854 53.665 64.6354 53.805C64.6854 53.9417 64.7104 54.1417 64.7104 54.405V56H64.3454L64.3254 55.645H64.2954C64.2254 55.805 64.1121 55.9117 63.9554 55.965C63.8021 56.015 63.6204 56.04 63.4104 56.04ZM63.5654 55.675C63.7321 55.675 63.8671 55.66 63.9704 55.63C64.0771 55.6 64.1537 55.5417 64.2004 55.455C64.2704 55.335 64.3054 55.1683 64.3054 54.955V54.84H63.4554C63.3154 54.84 63.2121 54.85 63.1454 54.87C63.0821 54.89 63.0371 54.93 63.0104 54.99C62.9837 55.0467 62.9704 55.1367 62.9704 55.26C62.9704 55.38 62.9854 55.4683 63.0154 55.525C63.0454 55.5817 63.1004 55.6217 63.1804 55.645C63.2637 55.665 63.3921 55.675 63.5654 55.675ZM65.582 53.45H65.942L65.962 53.935H65.992C66.052 53.735 66.152 53.5983 66.292 53.525C66.432 53.4483 66.6153 53.41 66.842 53.41V53.845C66.612 53.845 66.4353 53.88 66.312 53.95C66.1886 54.02 66.1036 54.1283 66.057 54.275C66.0103 54.4183 65.987 54.6133 65.987 54.86V56H65.582V53.45Z" fill="#FF0000"/>
<defs>
<filter id="filter0_i_5_36" x="12.8844" y="-1.90735e-06" width="24.64" height="32" filterUnits="userSpaceOnUse" color-interpolation-filters="sRGB">
<feFlood flood-opacity="0" result="BackgroundImageFix"/>
<feBlend mode="normal" in="SourceGraphic" in2="BackgroundImageFix" result="shape"/>
<feColorMatrix in="SourceAlpha" type="matrix" values="0 0 0 0 0 0 0 0 0 0 0 0 0 0 0 0 0 0 127 0" result="hardAlpha"/>
<feOffset dy="4"/>
<feGaussianBlur stdDeviation="2"/>
<feComposite in2="hardAlpha" operator="arithmetic" k2="-1" k3="1"/>
<feColorMatrix type="matrix" values="0 0 0 0 0 0 0 0 0 0 0 0 0 0 0 0 0 0 0.25 0"/>
<feBlend mode="normal" in2="shape" result="effect1_innerShadow_5_36"/>
</filter>
<filter id="filter1_i_5_36" x="38" y="6.8" width="26.132" height="22.2" filterUnits="userSpaceOnUse" color-interpolation-filters="sRGB">
<feFlood flood-opacity="0" result="BackgroundImageFix"/>
<feBlend mode="normal" in="SourceGraphic" in2="BackgroundImageFix" result="shape"/>
<feColorMatrix in="SourceAlpha" type="matrix" values="0 0 0 0 0 0 0 0 0 0 0 0 0 0 0 0 0 0 127 0" result="hardAlpha"/>
<feOffset dy="4"/>
<feGaussianBlur stdDeviation="2"/>
<feComposite in2="hardAlpha" operator="arithmetic" k2="-1" k3="1"/>
<feColorMatrix type="matrix" values="0 0 0 0 0 0 0 0 0 0 0 0 0 0 0 0 0 0 0.25 0"/>
<feBlend mode="normal" in2="shape" result="effect1_innerShadow_5_36"/>
</filter>
</defs>
</svg>
