<svg width="80" height="50" viewBox="0 0 80 50" fill="none" xmlns="http://www.w3.org/2000/svg">
<rect x="7" width="69" height="50" fill="white"/>
<path d="M3.72248 8.01814e-05C1.66728 8.01814e-05 0 1.65852 0 3.70477V46.2954C0 48.3412 1.66752 50 3.72248 50H76.2775C78.3327 50 80 48.3416 80 46.2953V3.70469C80 1.65876 78.3325 0 76.2775 0H3.7224L3.72248 8.01814e-05ZM26.2325 6.0187C30.7989 6.0187 34.9928 7.59983 38.2849 10.2409C35.5152 12.7074 33.4492 15.9479 32.43 19.6209H34.0275C34.9683 16.5908 36.6773 13.8931 38.93 11.7536C41.1826 13.8931 42.8916 16.5908 43.8324 19.6209H45.455C44.4216 15.9673 42.3528 12.7461 39.585 10.2957C42.8834 7.62109 47.0938 6.01862 51.68 6.01862C62.2632 6.01862 70.8424 14.5578 70.8424 25.0921C70.8424 35.6264 62.2632 44.1655 51.68 44.1655C47.0176 44.1655 42.7424 42.5093 39.42 39.7542C42.392 37.1809 44.583 33.7313 45.585 29.807H44.0224C43.1327 33.1007 41.342 36.0303 38.9299 38.3211C36.5179 36.0303 34.7296 33.1007 33.8399 29.807H32.3524C33.3602 33.6745 35.5226 37.0758 38.4499 39.6249C35.1336 42.3459 30.8752 43.9814 26.2324 43.9814C15.6492 43.9814 7.06999 35.4833 7.06999 25C7.06999 14.5168 15.6492 6.0187 26.2325 6.0187V6.0187ZM50.2424 19.4268C47.94 19.4268 45.7 21.4301 45.7 25.1916C45.7 27.6859 46.9099 29.3317 49.29 29.3317C49.9629 29.332 51.035 29.0581 51.035 29.0581L51.39 26.8785C51.39 26.8785 50.4116 27.3711 49.74 27.3711C48.3252 27.3711 47.7575 26.2883 47.7575 25.1245C47.7575 22.7636 48.9748 21.4645 50.33 21.4645C51.3462 21.4645 52.1624 22.0367 52.1624 22.0367L52.4875 19.9169C52.4875 19.9169 51.2792 19.4268 50.2424 19.4268H50.2424ZM69.5999 19.611L67.5975 19.6159L67.1675 22.2383C67.1675 22.2383 66.4147 21.2207 65.2375 21.2207C63.4071 21.2207 61.8824 23.3847 61.8824 25.8734C61.8824 27.4798 62.6939 29.0555 64.3575 29.0555C65.5541 29.0555 66.2175 28.2371 66.2175 28.2371L66.1299 28.9361H68.075L69.5999 19.611ZM12.2449 19.6383L10.65 28.9859H12.5725L13.7875 21.9373L13.9675 28.9859H15.3425L17.9075 21.9373L16.77 28.9859H18.8125L20.3875 19.6383H17.2275L15.26 25.3732L15.1575 19.6383H12.245L12.2449 19.6383ZM32.33 20.2454C32.2865 20.2887 31.1675 26.7109 31.1675 27.493C31.1675 28.6512 31.8197 29.1684 32.7375 29.1601C33.3951 29.1545 33.9044 28.9901 34.14 28.9212C34.1646 28.9146 34.2124 28.9013 34.2124 28.9013L34.46 27.2293C34.3254 27.2293 34.1272 27.2866 33.9524 27.2866C33.2672 27.2866 33.1913 26.9238 33.2349 26.6546L33.7875 23.2435H34.83L35.0824 21.3948H34.1L34.3 20.2454H32.33V20.2454ZM55.5675 21.1859C54.2256 21.1859 53.1975 21.6262 53.1975 21.6262L52.9124 23.343C52.9124 23.343 53.7616 22.9922 55.045 22.9922C55.7736 22.9922 56.3074 23.0751 56.3074 23.6789C56.3074 24.0456 56.2424 24.1815 56.2424 24.1815C56.2424 24.1815 55.6663 24.1317 55.3999 24.1317C53.7078 24.1317 51.93 24.8698 51.93 27.09C51.93 28.8394 53.0971 29.2397 53.8199 29.2397C55.2006 29.2397 55.7959 28.3269 55.8275 28.3241L55.7624 29.0855H57.485L58.255 23.5918C58.2552 21.2608 56.2603 21.1858 55.5675 21.1858V21.1859ZM23.2549 21.1958C21.9082 21.1958 20.8749 21.6362 20.8749 21.6362L20.59 23.353C20.59 23.353 21.442 23.0021 22.73 23.0021C23.4613 23.0021 23.9975 23.0854 23.9975 23.6888C23.9975 24.0554 23.9325 24.1914 23.9325 24.1914C23.9325 24.1914 23.3546 24.1417 23.0875 24.1417C21.3889 24.1417 19.605 24.8785 19.605 27.0975C19.605 28.8459 20.7745 29.2472 21.5 29.2472C22.8857 29.2472 23.4832 28.3343 23.515 28.3316L23.45 29.0929H25.18L25.9525 23.6018C25.9525 21.2721 23.9503 21.1957 23.2549 21.1957V21.1958ZM29.3649 21.1958C27.9188 21.1958 26.45 21.7768 26.45 23.761C26.45 26.0093 28.8975 25.7821 28.8975 26.7292C28.8975 27.3613 28.2145 27.4135 27.6875 27.4135C26.7755 27.4135 25.9554 27.0999 25.9525 27.1149L25.69 28.8316C25.7372 28.8462 26.245 29.073 27.885 29.073C28.3253 29.073 30.8425 29.1843 30.8425 26.575C30.8425 24.1356 28.5125 24.6191 28.5125 23.6391C28.5125 23.1512 28.8908 22.9972 29.5849 22.9972C29.8606 22.9972 30.9225 23.0843 30.9225 23.0843L31.1675 21.35C31.1675 21.3503 30.4823 21.1958 29.365 21.1958H29.3649ZM38.4049 21.1958C36.3953 21.1962 34.9075 23.3469 34.9075 25.7763C34.9075 28.5804 36.7716 29.2472 38.36 29.2472C39.826 29.2472 40.4724 28.9212 40.4724 28.9212L40.8224 27.0079C40.8224 27.0079 39.7072 27.4956 38.7 27.4956C36.5539 27.4956 36.93 25.9057 36.93 25.9057H40.9924C40.9924 25.9057 41.255 24.6208 41.255 24.0969C41.255 22.7895 40.5994 21.1958 38.405 21.1958H38.4049ZM45.6825 21.2779C44.7772 21.2779 44.1049 22.4896 44.1049 22.4896L44.2849 21.3774H42.4049L41.1425 29.0556H43.22C43.8084 25.7768 43.9158 23.1145 45.32 23.6018C45.5657 22.3327 45.8042 21.8424 46.0724 21.3053C46.0724 21.3053 45.9464 21.2779 45.6824 21.2779H45.6825ZM62.5149 21.2779C61.6096 21.2779 60.9375 22.4896 60.9375 22.4896L61.1175 21.3774H59.2375L57.9749 29.0556H60.0499C60.6386 25.7768 60.7487 23.1145 62.1524 23.6018C62.3987 22.3327 62.6369 21.8424 62.905 21.3053C62.905 21.3053 62.7789 21.2779 62.515 21.2779H62.5149ZM38.3949 22.9275C39.5363 22.9275 39.3275 24.2097 39.3275 24.3133H37.08C37.08 24.181 37.2926 22.9275 38.395 22.9275H38.3949ZM65.5525 23.0768C66.2789 23.0766 66.6525 23.5649 66.6525 24.7139C66.6525 25.7564 66.1242 27.1497 65.0299 27.1497C64.3037 27.1497 63.9624 26.5528 63.9624 25.6171C63.9624 24.087 64.6658 23.0768 65.5524 23.0768H65.5525ZM55.5699 25.6892C55.8663 25.6896 55.9275 25.7183 55.9775 25.7316C55.9703 25.7304 55.9689 25.7317 55.9975 25.7365C56.035 26.0785 55.7899 27.6822 54.6049 27.6822C53.9939 27.6822 53.8375 27.1987 53.8375 26.9133C53.8375 26.357 54.1285 25.6892 55.5699 25.6892ZM23.2575 25.6967C23.5941 25.6971 23.6308 25.7345 23.6875 25.744C23.7251 26.0858 23.479 27.6871 22.29 27.6871C21.6766 27.6871 21.5175 27.2059 21.5175 26.9208C21.5175 26.3648 21.8103 25.6967 23.2575 25.6967Z" fill="black"/>
</svg>
