<svg width="1000" height="628" viewBox="0 0 1000 628" fill="none" xmlns="http://www.w3.org/2000/svg">
<rect x="61" y="86" width="865" height="451" fill="white"/>
<path d="M40 0C17.913 0 0 17.908 0 40V588C0 610.091 17.922 628 40 628H960C982.087 628 1000 610.092 1000 588V40C1000 17.909 982.078 0 960 0H40ZM597.25 187.156C621.588 187.156 641.093 192.532 653.531 197.531L645.031 251L639.406 248.156C627.819 243.157 612.936 238.346 592.406 238.687C567.83 238.687 556.469 249.65 556.469 259.907C556.326 271.464 569.744 279.086 591.687 290.5C627.904 308.11 644.643 329.462 644.407 357.531C643.919 408.748 601.083 441.844 535.094 441.844C506.941 441.534 479.818 435.574 465.156 428.687L473.969 373.437L482.063 377.375C502.68 386.587 516.03 390.313 541.156 390.313C559.199 390.313 578.565 382.758 578.719 366.219C578.836 355.419 570.624 347.719 546.187 335.625C522.375 323.821 490.807 304.048 491.157 268.594C491.529 220.633 535.22 187.156 597.25 187.156V187.156ZM88.437 195H189.781C203.428 195.516 214.446 199.91 218.25 214.719L240.094 327.469C240.097 327.479 240.09 327.52 240.094 327.531L246.656 361.313L308.187 195H374.75L275.812 438.438L209.312 438.5L156.375 242.062C187.873 258.749 214.689 278.056 230.219 304.625C226.215 296.218 220.939 286.728 214.188 277.375C206.326 266.483 189.347 252.42 182.25 246.437C157.52 225.59 123.935 208.753 87.656 199.844L88.437 195V195ZM401.219 195.281H466.313L425.593 438.344H360.5L401.219 195.281V195.281ZM768.875 195.281H818.188L869.813 438.344H810.625C810.625 438.344 804.753 410.42 802.844 401.906C793.541 401.906 728.477 401.813 721.156 401.813C718.679 408.393 707.719 438.343 707.719 438.343H640.75L735.469 215.469C742.175 199.631 753.606 195.281 768.875 195.281V195.281ZM773.719 260.656C770.516 269.697 764.939 284.297 765.312 283.656C765.312 283.656 745.275 337.096 740.032 350.969L792.687 350.937C787.796 327.76 782.9 304.583 778 281.408L773.719 260.658V260.656Z" fill="black"/>
</svg>
